<?xml version="1.0" standalone="no"?>
<!DOCTYPE svg PUBLIC "-//W3C//DTD SVG 20010904//EN"
 "http://www.w3.org/TR/2001/REC-SVG-20010904/DTD/svg10.dtd">
<svg version="1.0" xmlns="http://www.w3.org/2000/svg"
 width="1000.000000pt" height="1000.000000pt" viewBox="0 0 1000.000000 1000.000000"
 preserveAspectRatio="xMidYMid meet">

<g transform="translate(0.000000,1000.000000) scale(0.100000,-0.100000)"
fill="#000000" stroke="none">
<path d="M3965 8671 c-11 -5 -27 -17 -36 -27 -9 -11 -156 -264 -326 -564 -171
-300 -399 -700 -507 -890 -147 -257 -196 -352 -194 -371 2 -14 151 -284 330
-600 179 -316 405 -713 501 -884 97 -170 185 -320 196 -332 l19 -23 1036 0
1036 0 34 33 c18 17 96 142 171 277 76 135 292 515 480 845 395 693 375 656
375 690 0 33 -10 53 -220 420 -97 171 -313 551 -480 845 -166 294 -313 546
-326 560 l-24 25 -1023 2 c-562 1 -1031 -2 -1042 -6z m1819 -110 c-9 -9 -264
-94 -1023 -341 -273 -89 -445 -140 -464 -138 -21 2 -35 11 -44 28 -33 64 -203
440 -203 449 0 8 266 11 872 11 511 0 868 -4 862 -9z m202 -72 c9 -15 294
-1604 294 -1641 0 -15 -2 -28 -4 -28 -2 0 -168 101 -369 224 -200 124 -623
383 -938 576 -316 194 -578 356 -583 360 -4 5 178 69 405 143 228 75 578 189
779 255 201 66 375 120 387 121 12 1 25 -4 29 -10z m-1913 -229 c52 -113 97
-215 101 -227 9 -29 34 -3 -540 -549 -532 -507 -512 -489 -519 -482 -4 4 314
571 787 1401 42 73 53 86 63 75 8 -7 56 -105 108 -218z m2472 -671 c215 -380
391 -694 393 -699 5 -14 -497 -126 -522 -117 -8 3 -19 30 -25 59 -23 115 -251
1416 -251 1432 0 9 3 16 8 16 4 -1 183 -311 397 -691z m-1252 -289 c532 -326
966 -594 965 -596 -4 -2 -1894 -1076 -1925 -1093 l-23 -12 0 1151 c0 633 3
1149 8 1147 4 -2 442 -271 975 -597z m-1105 -1097 l-3 -557 -557 577 -556 577
126 124 c70 67 321 309 557 536 l430 413 3 -557 c1 -306 1 -807 0 -1113z
m2734 525 c-17 -29 -208 -368 -426 -753 -218 -384 -399 -701 -401 -704 -18
-18 -5 50 74 390 204 872 229 971 248 990 12 12 84 33 228 64 116 25 226 49
245 54 62 16 63 14 32 -41z m-648 -170 c-22 -117 -316 -1368 -327 -1388 -10
-19 -20 -24 -40 -22 -38 4 -1477 361 -1495 371 -9 5 139 95 475 286 268 153
688 392 932 532 245 139 448 253 453 253 4 0 5 -15 2 -32z m-2622 -508 c512
-530 508 -526 508 -559 0 -20 -32 -82 -96 -188 -53 -87 -98 -159 -99 -161 -4
-5 -765 1345 -765 1358 0 16 26 -10 452 -450z m1344 -781 c373 -94 683 -175
689 -180 5 -5 -311 -9 -809 -9 -761 0 -818 1 -812 17 13 34 189 318 204 331 9
6 23 12 32 12 9 0 322 -77 696 -171z"/>
<path d="M6082 3990 c-180 -33 -315 -132 -388 -285 -48 -100 -64 -174 -64
-291 0 -297 148 -503 410 -570 41 -11 105 -17 175 -17 188 0 307 43 416 152
73 73 117 150 145 252 24 88 24 271 0 359 -53 194 -191 335 -377 386 -68 18
-247 26 -317 14z m265 -236 c163 -78 231 -338 141 -536 -32 -69 -69 -112 -126
-145 -61 -36 -189 -45 -259 -18 -67 26 -135 93 -169 168 -27 58 -29 70 -29
187 0 119 1 128 31 191 34 71 86 128 140 154 85 40 185 40 271 -1z"/>
<path d="M9302 3985 c-111 -25 -191 -86 -234 -180 -32 -71 -33 -220 -1 -281
48 -92 118 -135 324 -204 68 -22 139 -51 156 -63 65 -44 80 -129 30 -174 -43
-39 -70 -47 -157 -47 -96 0 -185 21 -277 64 -73 34 -68 40 -78 -101 l-7 -96
40 -16 c166 -66 437 -78 578 -26 157 59 237 230 189 406 -31 114 -103 166
-337 244 -142 47 -182 69 -204 111 -42 81 42 168 161 168 55 0 167 -29 236
-61 38 -18 71 -30 73 -28 2 2 7 52 11 112 l7 107 -36 15 c-123 52 -359 77
-474 50z"/>
<path d="M110 3966 c0 -25 290 -1110 298 -1118 5 -5 73 -7 152 -6 l143 3 28
120 c15 66 54 236 85 378 37 163 62 257 70 257 7 0 26 -59 48 -152 20 -84 60
-254 89 -378 l52 -225 157 -3 c143 -2 157 -1 162 15 27 91 296 1098 296 1109
0 19 -278 21 -285 2 -3 -7 -41 -188 -85 -403 -44 -214 -82 -396 -85 -404 -4
-9 -9 -11 -15 -5 -5 5 -48 189 -96 409 -47 220 -88 403 -91 408 -2 4 -64 7
-138 7 l-133 0 -16 -67 c-8 -38 -47 -221 -86 -408 -39 -187 -75 -344 -80 -349
-6 -6 -11 -4 -15 5 -2 8 -42 194 -87 414 l-83 400 -142 3 c-121 2 -143 0 -143
-12z"/>
<path d="M1850 3415 l0 -565 130 0 130 0 0 565 0 565 -130 0 -130 0 0 -565z"/>
<path d="M2350 3410 l0 -571 118 3 117 3 3 348 c1 191 6 347 11 347 5 0 117
-157 251 -350 l242 -350 109 0 109 0 0 570 0 570 -120 0 -120 0 0 -351 c0
-273 -3 -350 -12 -347 -7 3 -120 161 -251 351 l-239 347 -109 0 -109 0 0 -570z"/>
<path d="M3540 3410 l0 -570 375 0 375 0 0 110 0 110 -250 0 -250 0 0 130 0
130 235 0 235 0 0 95 0 95 -235 0 -235 0 0 125 0 125 248 2 247 3 0 105 0 105
-372 3 -373 2 0 -570z"/>
<path d="M4490 3410 l0 -571 118 3 117 3 3 348 c1 201 6 347 11 347 5 0 118
-157 251 -350 l242 -350 109 0 109 0 0 570 0 570 -120 0 -120 0 0 -351 c0
-266 -3 -350 -12 -347 -6 2 -118 159 -249 349 l-237 344 -111 3 -111 3 0 -571z"/>
<path d="M6975 3969 c-3 -8 -4 -264 -3 -569 l3 -555 250 1 c196 1 267 5 326
18 274 61 409 243 409 550 -1 294 -123 474 -367 542 -82 23 -610 34 -618 13z
m495 -210 c80 -17 139 -64 180 -144 32 -63 35 -75 38 -176 5 -138 -18 -223
-77 -291 -61 -69 -120 -90 -263 -96 l-118 -4 0 361 0 361 95 0 c51 0 117 -5
145 -11z"/>
<path d="M8140 3410 l0 -570 375 0 375 0 0 110 0 110 -250 0 -250 0 0 130 0
130 235 0 235 0 0 95 0 95 -235 0 -235 0 0 125 0 125 248 2 247 3 3 108 3 107
-376 0 -375 0 0 -570z"/>
<path d="M965 2039 c-100 -37 -137 -166 -67 -231 33 -32 68 -49 154 -77 37
-12 78 -31 91 -41 49 -39 42 -117 -14 -145 -39 -21 -129 -19 -194 4 -59 21
-65 19 -65 -16 0 -39 56 -57 177 -57 87 -1 105 2 129 20 86 63 98 172 27 236
-11 10 -61 33 -111 52 -51 19 -104 42 -118 51 -55 36 -49 111 11 139 45 22
104 20 167 -4 29 -11 54 -20 56 -20 1 0 2 14 2 31 0 25 -6 32 -37 45 -47 20
-169 27 -208 13z"/>
<path d="M2475 2032 c-52 -25 -75 -51 -85 -99 -12 -49 2 -102 34 -132 13 -13
71 -40 128 -62 112 -42 148 -71 148 -119 0 -16 -11 -41 -24 -57 -23 -27 -28
-28 -113 -28 -66 0 -96 5 -121 18 -39 21 -42 20 -45 -19 -2 -25 3 -29 53 -45
82 -26 186 -25 240 4 58 31 82 76 77 145 -5 74 -36 102 -166 152 -123 47 -141
60 -141 110 0 80 99 113 209 71 30 -11 56 -20 56 -18 1 1 5 14 9 28 5 24 2 29
-37 44 -65 27 -173 30 -222 7z"/>
<path d="M4124 2032 c-28 -10 -64 -28 -80 -41 -102 -79 -132 -247 -69 -377 47
-95 132 -144 250 -144 161 0 258 90 281 261 8 56 -17 156 -50 205 -66 98 -207
139 -332 96z m191 -61 c79 -36 117 -105 117 -211 1 -113 -63 -210 -147 -226
-143 -26 -244 42 -268 180 -19 111 30 217 118 257 51 24 129 24 180 0z"/>
<path d="M5640 2035 c-60 -19 -109 -62 -145 -126 -27 -49 -30 -62 -30 -149 0
-84 3 -101 27 -146 55 -105 145 -150 282 -142 106 7 136 21 136 64 l0 33 -42
-19 c-55 -25 -166 -27 -214 -4 -136 65 -168 267 -59 380 65 68 165 81 269 35
38 -17 45 -17 50 -4 16 41 7 52 -60 73 -76 23 -149 25 -214 5z"/>
<path d="M6182 2032 c-113 -41 -176 -141 -176 -278 0 -68 5 -90 28 -137 47
-98 132 -147 250 -147 80 0 126 14 178 53 114 87 140 289 55 413 -68 98 -213
139 -335 96z m186 -57 c85 -36 126 -105 126 -215 1 -66 -3 -82 -30 -130 -40
-70 -92 -100 -176 -100 -73 0 -114 17 -155 63 -99 113 -66 320 60 378 51 23
125 24 175 4z"/>
<path d="M8502 2032 c-134 -48 -207 -200 -168 -351 26 -100 82 -164 173 -197
51 -18 158 -17 221 1 50 15 52 17 52 50 0 19 -2 35 -4 35 -2 0 -23 -9 -47 -20
-58 -26 -159 -26 -216 -1 -152 70 -157 337 -8 415 55 29 161 28 228 -2 l47
-21 0 33 c0 30 -4 36 -42 51 -67 26 -173 29 -236 7z"/>
<path d="M1360 1760 l0 -280 35 0 35 0 0 280 0 280 -35 0 -35 0 0 -280z"/>
<path d="M1580 1761 l0 -281 35 0 35 0 0 109 0 108 99 5 c115 6 165 26 196 79
27 46 28 152 1 192 -35 52 -67 61 -223 65 l-143 4 0 -281z m285 196 c30 -26
43 -87 26 -129 -18 -48 -65 -68 -158 -68 l-83 0 0 110 0 110 94 0 c84 0 98 -3
121 -23z"/>
<path d="M2997 1938 c-20 -57 -65 -183 -101 -281 l-64 -178 35 3 c34 3 37 6
60 71 l25 67 129 0 128 0 22 -70 c23 -70 23 -70 60 -70 l36 0 -100 280 -100
280 -46 0 -47 0 -37 -102z m136 -100 c25 -73 48 -141 52 -150 7 -17 -2 -18
-105 -18 -85 0 -111 3 -108 13 3 6 27 74 53 150 26 75 51 137 55 137 4 0 28
-60 53 -132z"/>
<path d="M3385 2019 c4 -12 49 -137 99 -278 l92 -256 51 -3 50 -3 96 273 c53
150 97 276 97 281 0 4 -15 7 -34 7 -33 0 -35 -3 -54 -57 -118 -344 -145 -419
-151 -426 -7 -7 -120 302 -162 441 -12 40 -14 42 -51 42 -36 0 -39 -2 -33 -21z"/>
<path d="M4620 1761 l0 -281 35 0 35 0 0 115 0 115 50 0 49 0 91 -115 c89
-112 92 -115 131 -115 l40 0 -45 58 c-25 31 -67 84 -94 117 l-49 60 51 25 c65
32 91 74 91 151 0 64 -19 100 -68 126 -25 14 -63 18 -174 21 l-143 4 0 -281z
m277 204 c40 -28 48 -106 17 -158 -16 -27 -80 -46 -156 -47 l-68 0 0 110 0
110 93 0 c67 0 99 -4 114 -15z"/>
<path d="M6690 1760 l0 -280 30 0 30 0 2 222 3 223 158 -223 c145 -204 160
-222 187 -222 l30 0 0 280 0 280 -30 0 -30 0 -2 -222 -3 -223 -158 223 c-145
202 -161 222 -188 222 l-29 0 0 -280z"/>
<path d="M7290 1760 l0 -280 30 0 30 0 2 223 3 222 155 -220 c143 -202 159
-220 188 -223 l32 -3 0 280 0 281 -30 0 -30 0 0 -221 c0 -134 -4 -218 -9 -214
-5 3 -78 102 -161 220 -138 196 -155 215 -181 215 l-29 0 0 -280z"/>
<path d="M7880 1760 l0 -280 175 0 175 0 0 25 0 24 -137 3 -138 3 -3 98 -3 97
136 0 135 0 0 30 0 30 -135 0 -135 0 0 95 0 95 140 0 140 0 0 30 0 30 -175 0
-175 0 0 -280z"/>
<path d="M8850 2010 l0 -29 98 -3 97 -3 3 -247 2 -248 30 0 30 0 2 248 3 247
98 3 97 3 0 29 0 30 -230 0 -230 0 0 -30z"/>
<path d="M2068 1493 c-2 -46 -10 -92 -20 -111 -17 -33 -17 -33 5 -30 32 4 87
101 87 153 0 46 -13 65 -46 65 -20 0 -22 -6 -26 -77z"/>
<path d="M5148 1493 c-3 -45 -12 -92 -22 -110 -14 -28 -14 -33 -2 -33 37 0 95
98 96 161 0 40 -14 59 -46 59 -20 0 -22 -6 -26 -77z"/>
</g>
</svg>
