<?xml version="1.0" standalone="no"?>
<!DOCTYPE svg PUBLIC "-//W3C//DTD SVG 20010904//EN"
 "http://www.w3.org/TR/2001/REC-SVG-20010904/DTD/svg10.dtd">
<svg version="1.0" xmlns="http://www.w3.org/2000/svg"
 width="600.000000pt" height="600.000000pt" viewBox="0 0 600.000000 600.000000"
 preserveAspectRatio="xMidYMid meet">

<g transform="translate(0.000000,600.000000) scale(0.100000,-0.100000)"
fill="#000000" stroke="none">
<path d="M1576 5368 c-20 -20 -138 -218 -291 -488 -142 -250 -445 -783 -674
-1184 -336 -590 -416 -737 -416 -766 0 -29 57 -136 284 -535 157 -275 457
-806 669 -1180 212 -374 392 -691 400 -704 35 -53 -23 -51 1429 -51 1303 0
1349 1 1390 19 25 12 51 35 66 58 14 21 150 259 302 528 153 270 439 771 635
1115 196 344 367 644 379 667 27 54 27 112 0 166 -12 23 -214 380 -449 792
-235 413 -527 928 -650 1145 -122 217 -235 407 -251 423 l-29 27 -1380 0
-1380 0 -34 -32z m2474 -116 c0 -11 -136 -56 -1137 -382 -457 -148 -842 -270
-855 -270 -14 0 -32 8 -41 18 -8 9 -57 107 -107 217 -135 292 -190 414 -190
420 0 3 524 5 1165 5 641 0 1165 -4 1165 -8z m258 -95 c6 -7 92 -465 191
-1019 194 -1078 216 -1207 208 -1214 -3 -3 -238 138 -523 313 -286 176 -855
525 -1266 777 -412 253 -748 462 -748 465 0 3 246 86 548 184 301 98 772 252
1047 342 275 90 507 164 516 164 9 1 21 -5 27 -12z m-2686 -29 c39 -61 268
-573 268 -601 0 -24 -11 -41 -48 -76 -772 -740 -1337 -1278 -1348 -1284 -7 -4
-15 -4 -17 0 -6 9 1113 1983 1124 1983 4 0 13 -10 21 -22z m3440 -1189 c285
-503 518 -918 518 -924 1 -11 -88 -34 -416 -105 -245 -53 -276 -57 -292 -37
-6 6 -80 408 -166 892 -86 484 -164 929 -175 989 -20 108 -19 144 3 114 6 -8
244 -426 528 -929z m-1662 -384 c696 -427 1266 -779 1267 -783 1 -4 -559 -325
-1245 -715 -686 -389 -1271 -721 -1299 -737 l-53 -30 0 1541 0 1541 33 -20
c17 -11 601 -370 1297 -797z m-1492 -1450 l-3 -747 -738 765 c-406 421 -739
769 -739 774 -1 4 331 328 738 719 l739 711 3 -738 c1 -406 1 -1074 0 -1484z
m3680 741 c-120 -220 -1135 -1996 -1140 -1996 -4 0 -8 7 -8 15 0 14 134 589
320 1375 61 258 107 435 118 449 10 14 29 28 43 33 28 9 647 146 667 147 10 1
10 -3 0 -23z m-892 -268 c-11 -71 -427 -1852 -437 -1870 -6 -12 -22 -18 -42
-18 -29 0 -1790 433 -1961 482 -49 14 -66 23 -55 29 120 71 2486 1418 2493
1418 5 1 6 -18 2 -41z m-3690 -490 c220 -226 504 -520 631 -652 181 -186 234
-247 239 -273 7 -37 13 -24 -153 -301 l-111 -183 -25 43 c-130 225 -997 1761
-997 1768 0 6 4 10 9 10 5 0 188 -185 407 -412z m1969 -1233 c490 -123 905
-230 921 -237 24 -11 -61 -13 -518 -16 -300 -1 -794 -1 -1097 0 l-550 3 136
227 c131 217 154 246 197 247 11 1 421 -100 911 -224z"/>
</g>
</svg>
